<svg width="24" height="24" viewBox="0 0 24 24" fill="none" xmlns="http://www.w3.org/2000/svg">
<path fill-rule="evenodd" clip-rule="evenodd" d="M13.4985 4C13.4985 3.17157 12.827 2.5 11.9985 2.5C11.1701 2.5 10.4985 3.17157 10.4985 4V10.4985L4 10.4985C3.17157 10.4985 2.5 11.1701 2.5 11.9985C2.5 12.827 3.17157 13.4985 4 13.4985H10.4985V19.997C10.4985 20.8254 11.1701 21.497 11.9985 21.497C12.827 21.497 13.4985 20.8254 13.4985 19.997V13.4985H19.997C20.8254 13.4985 21.497 12.827 21.497 11.9985C21.497 11.1701 20.8254 10.4985 19.997 10.4985L13.4985 10.4985V4Z" fill="#000091"/>
</svg>
